<svg width="8" height="13" viewBox="0 0 8 13" fill="none" xmlns="http://www.w3.org/2000/svg">
<path d="M7.04765 0.0235704H5.1422C2.71538 -0.000712035 2.40542 1.50123 2.40542 3.12672V4.30871H1.33414C1.28572 4.30224 1.23646 4.30702 1.19018 4.32268C1.14391 4.33834 1.10187 4.36445 1.06733 4.399C1.03279 4.43354 1.00667 4.47558 0.991013 4.52185C0.975355 4.56812 0.970573 4.61738 0.977041 4.6658V6.80837C0.970573 6.85679 0.975355 6.90605 0.991013 6.95232C1.00667 6.99859 1.03279 7.04064 1.06733 7.07518C1.10187 7.10972 1.14391 7.13583 1.19018 7.15149C1.23646 7.16715 1.28572 7.17193 1.33414 7.16547H2.40542V12.5219C2.39947 12.5704 2.40468 12.6196 2.42067 12.6658C2.43665 12.712 2.46298 12.7539 2.49764 12.7884C2.5323 12.8228 2.57437 12.8489 2.62065 12.8646C2.66693 12.8803 2.71619 12.8852 2.76466 12.879H4.94651C5.15719 12.9033 5.32788 12.7326 5.26075 12.5219L5.26218 7.16547H7.04765C7.09607 7.17193 7.14533 7.16715 7.1916 7.15149C7.23788 7.13583 7.27992 7.10972 7.31446 7.07518C7.349 7.04064 7.37512 6.99859 7.39078 6.95232C7.40643 6.90605 7.41122 6.85679 7.40475 6.80837V4.6658C7.41122 4.61738 7.40643 4.56812 7.39078 4.52185C7.37512 4.47558 7.349 4.43354 7.31446 4.399C7.27992 4.36445 7.23788 4.33834 7.1916 4.32268C7.14533 4.30702 7.09607 4.30224 7.04765 4.30871H5.26004L5.26218 3.23742C5.33146 2.78106 5.33146 2.85533 5.75497 2.88033H7.03265C7.13193 2.85819 7.23763 2.87033 7.3119 2.7982C7.38618 2.72606 7.42903 2.62751 7.40403 2.52323V0.380665C7.41063 0.332284 7.40596 0.283034 7.39039 0.236754C7.37482 0.190474 7.34878 0.148414 7.31428 0.113853C7.27979 0.0792919 7.23778 0.0531628 7.19154 0.0375027C7.14529 0.0218427 7.09605 0.0170748 7.04765 0.0235704ZM6.66556 2.12614L5.76997 2.09186C4.66083 2.09186 4.56799 2.69393 4.56799 3.31027L4.56513 4.66437C4.56504 4.71452 4.57483 4.76419 4.59396 4.81054C4.61308 4.85689 4.64116 4.89902 4.67658 4.93451C4.712 4.97 4.75408 4.99816 4.8004 5.01737C4.84671 5.03658 4.89636 5.04647 4.94651 5.04647H6.69056V6.42628H4.94793C4.84672 6.42628 4.74964 6.46644 4.67801 6.53794C4.60637 6.60944 4.56603 6.70644 4.56584 6.80766L4.56513 12.1648H3.11961V6.80837C3.11961 6.59768 2.97606 6.42699 2.76466 6.42699H1.69123V5.04718H2.76466C2.81477 5.04726 2.8644 5.03745 2.91073 5.01834C2.95705 4.99922 2.99915 4.97116 3.03462 4.93577C3.10604 4.86363 3.1189 4.7665 3.1189 4.66509V3.12601C3.1189 1.5248 3.44242 0.762043 5.14148 0.762043H6.66485V2.12614H6.66556Z" fill="white"/>
</svg>
