<svg width="13" height="11" viewBox="0 0 13 11" fill="none" xmlns="http://www.w3.org/2000/svg">
<path d="M12.4335 1.91309C12.5128 1.76645 12.578 1.6127 12.6285 1.45386C12.6519 1.38019 12.6524 1.30115 12.6299 1.2272C12.6074 1.15325 12.563 1.08786 12.5026 1.03966C12.4421 0.991456 12.3685 0.962715 12.2914 0.957228C12.2143 0.951741 12.1374 0.969766 12.0707 1.00892C11.7048 1.22633 11.3086 1.3883 10.8952 1.48957C10.3933 1.03662 9.74148 0.785507 9.06542 0.784668C8.69813 0.78495 8.33467 0.859395 7.99684 1.00354C7.65901 1.14768 7.35377 1.35856 7.09941 1.62352C6.84505 1.88849 6.64681 2.20209 6.51657 2.54552C6.38634 2.88895 6.32679 3.25514 6.3415 3.62214C4.7353 3.41994 3.26858 2.60717 2.24563 1.35245C2.20643 1.30491 2.15634 1.26754 2.09961 1.24351C2.04289 1.21947 1.9812 1.20948 1.91978 1.21439C1.85837 1.2193 1.79905 1.23896 1.74685 1.27169C1.69466 1.30443 1.65114 1.34929 1.62 1.40244C1.38576 1.80448 1.25844 2.25983 1.25019 2.72505C1.24194 3.19027 1.35303 3.64985 1.57286 4.05994C1.51894 4.06904 1.46715 4.08792 1.42002 4.11565C1.36228 4.15247 1.31474 4.20324 1.28178 4.26328C1.24883 4.32332 1.23153 4.39069 1.23148 4.45917C1.23148 5.26978 1.59214 6.01396 2.17349 6.51961L2.1485 6.54461C2.10461 6.59426 2.07441 6.65448 2.06089 6.71936C2.04736 6.78423 2.05097 6.85151 2.07136 6.91456C2.19259 7.29274 2.395 7.63986 2.66443 7.93162C2.93386 8.22338 3.2638 8.45273 3.63115 8.60361C2.87668 8.97167 2.03234 9.1152 1.19862 9.01713C1.11293 9.0084 1.02675 9.02834 0.953598 9.07383C0.880448 9.11932 0.824455 9.1878 0.794393 9.26853C0.765524 9.34985 0.764982 9.43855 0.792855 9.52022C0.820728 9.6019 0.87538 9.67175 0.947944 9.71847C2.08137 10.4459 3.39994 10.8324 4.74672 10.8319C9.16041 10.8319 11.7986 7.24666 11.7986 3.78069L11.7979 3.66357C12.2257 3.32962 12.5972 2.92938 12.8985 2.47801C12.9441 2.40978 12.9665 2.32866 12.9625 2.24668C12.9584 2.1647 12.928 2.08622 12.8759 2.02284C12.8237 1.95946 12.7525 1.91457 12.6729 1.8948C12.5932 1.87503 12.5093 1.88144 12.4335 1.91309ZM11.1873 3.16649C11.1355 3.20376 11.0938 3.25341 11.0661 3.31093C11.0384 3.36844 11.0256 3.43198 11.0287 3.49573C11.033 3.59 11.0352 3.68571 11.0352 3.77998C11.0352 6.87099 8.68333 10.0684 4.74743 10.0684C4.04546 10.0687 3.34844 9.95092 2.68557 9.71989C3.47946 9.56775 4.22524 9.22731 4.86027 8.72717C4.92209 8.67843 4.96734 8.61179 4.98985 8.53635C5.01235 8.46092 5.011 8.38037 4.98599 8.30573C4.96098 8.23109 4.91353 8.16599 4.85012 8.11935C4.78671 8.0727 4.71044 8.04677 4.63173 8.04512C4.32379 8.03924 4.02155 7.96107 3.74937 7.81692C3.47719 7.67276 3.24269 7.46666 3.0648 7.21523C3.24549 7.20309 3.42261 7.17309 3.59473 7.12667C3.67803 7.10438 3.75132 7.05451 3.80263 6.9852C3.85395 6.9159 3.88026 6.83125 3.87728 6.74507C3.87429 6.65888 3.84219 6.57626 3.78621 6.51067C3.73022 6.44508 3.65366 6.4004 3.56902 6.38391C3.22123 6.31317 2.89921 6.1492 2.63742 5.90955C2.37563 5.6699 2.18392 5.36359 2.08279 5.02338C2.27277 5.07123 2.46774 5.09909 2.66271 5.10551C2.83055 5.1048 2.98624 5.00196 3.03838 4.84055C3.09051 4.67914 3.02909 4.50131 2.88697 4.40704C2.55092 4.18314 2.29218 3.86098 2.14608 3.48453C1.99997 3.10809 1.97363 2.69572 2.07065 2.30375C3.31122 3.57666 4.98637 4.33466 6.76145 4.42632C6.88714 4.42703 6.99713 4.38204 7.07355 4.28991C7.14997 4.19778 7.17925 4.07565 7.15211 3.95853C7.05443 3.53787 7.09812 3.09674 7.27642 2.70342C7.45471 2.31009 7.75767 1.9865 8.13841 1.78271C8.51916 1.57892 8.95645 1.5063 9.38262 1.57609C9.8088 1.64588 10.2001 1.85418 10.4959 2.16877C10.5403 2.21608 10.5959 2.25132 10.6577 2.27119C10.7194 2.29105 10.7851 2.29489 10.8488 2.28232C10.9666 2.25876 11.083 2.23162 11.198 2.20019C11.1462 2.239 11.0923 2.275 11.0366 2.30803C10.9625 2.3534 10.9061 2.42264 10.8767 2.50435C10.8473 2.58606 10.8465 2.67536 10.8746 2.75754C10.9028 2.83971 10.958 2.90986 11.0313 2.95641C11.1047 3.00297 11.1917 3.02316 11.278 3.01365L11.408 2.99723C11.3364 3.05619 11.2628 3.11264 11.1873 3.16649Z" fill="white"/>
</svg>
